<svg 
    id="eUhXnR96Y3t1" 
    xmlns="http://www.w3.org/2000/svg" 
    xmlns:xlink="http://www.w3.org/1999/xlink" 
    viewBox="0 0 640 480" 
    shape-rendering="geometricPrecision" 
    text-rendering="geometricPrecision"
>


    <path
        d="M0,218.556058l86.848589-48.651177l70.357086,60.62685L259.747386,127.990019l35.927023,35.927024l96.553874-69.608608l68.111648,127.99002l83.82972-107.781069l11.227194,23.202869l84.603149,131.732418v210.547326h-640L0,218.556058Z" 
        transform="translate(.000006 0.000001)" 
        fill="#ffcbcb" 
        stroke-width="1.28"
    />


    <path 
        d="M0,261.967878l157.205681-98.050834l102.54171,80.835802l25.448303-26.196787l53.890535-32.933106l53.142057,22.45439l14.96959,22.454389l53.142058-78.590363l79.33884,41.91486l100.321223-56.135975-.000001,342.279744h-639.999995L0,261.967878Z" transform="translate(.000007 0.000002)" 
        fill="#f99" 
        stroke-width="1.28"
    />
    <path 
        d="M0.000006,357.024793L86.848595,256.72852l35.178532,20.957423l114.517387-92.062995q48.651182,163.168563,48.651182,164.665522t-285.195701,6.736323h.000011Z" 
        transform="translate(.748485-.748473)" 
        fill="#fd7b7b" 
        stroke-width="1.28"
    />
    <path 
        d="M407.197876,361.515666l24.699832-83.829716l28.442228,41.16638l51.645092-104.787152l65.866208,63.620769l62.14876,41.16638-.000001,42.663339h-232.802119Z" 
        transform="translate(.000007 0.000005)" 
        fill="#fd7b7b" 
        stroke-width="1.28"
    />
    <path 
        d="M0.000011,341.306721L56.16093,318.852332l39.669413,25.448317l30.687665-35.440522l30.687678,9.992214l16.46654,25.448308l36.675503-35.440523l42.66334,30.949644l6.736327,28.442227l51.645088,42.66334q89.069076,19.46046,89.817556,21.705899t35.178543-59.878368l48.651178-32.933098l59.129894-5.987823q32.933103,26.945267,40.417899,36.675489t34.430064-39.669421l20.982389,26.196801v122.975182h-640.000009l.000013-138.693277Z" 
        transform="translate(-.000002 0.000002)" 
        fill="#ca7fff" 
        stroke-width="1.28"
    />
    <path 
        d="M0.000009,408.669887v71.33011l639.999993-.000001-.000001-72.827071-66.639646-17.963518-33.681581,14.221113-42.663344-13.472636-23.951349,13.472634-29.190706-13.472634q16.466561-13.472633,16.466561-14.221113t-23.951358-14.221114l6.736317-11.227194-17.963511-11.975675-17.963508,18.711998l8.981752,9.730229-23.951342,22.454389l14.96959,7.484797-27.693751,14.221113-20.208951-14.221113-29.190706-5.987843l17.963512-14.969587-17.963512-18.711978-10.10447-18.712005-8.607519,18.712005-15.718071,18.711978q15.718071,15.718067,15.718071,14.969587t-36.675505,20.208956l-64.36925-20.95743-75.596445,18.712003-72.602526-17.963529" 
        transform="translate(.000007 0.000025)" 
        fill="#a841f1" 
        stroke-width="1.28"
    />
</svg>